<?xml version="1.0" encoding="utf-8"?>
<!-- Generator: Adobe Illustrator 26.1.0, SVG Export Plug-In . SVG Version: 6.00 Build 0) -->
<svg version="1.1" id="Layer_1" xmlns="http://www.w3.org/2000/svg" xmlns:xlink="http://www.w3.org/1999/xlink" x="0px" y="0px" viewBox="0 0 91 18" enable-background="new 0 0 91 18" xml:space="preserve">
	<path fill="currentColor" d="M30.2806,7.32594c-2.3011-0.79346-3.9215-1.36954-3.9323-2.63038
	c-0.0216-1.5217,1.6312-2.34777,2.9924-2.34777c0.2932,0.00283,0.5857,0.02826,0.875,0.07609
	c0.4298,0.08682,0.8423,0.24475,1.2208,0.46738l0.054,0.03261l0.108,0.06521c0.1407,0.10312,0.2742,0.21569,0.3997,0.33695
	c0.0224,0.02803,0.0478,0.05354,0.0756,0.07609l0.0541,0.06521c0.336,0.39581,0.5764,0.86458,0.7022,1.36954l2.2362-0.49999
	c-0.1401-0.54725-0.3431-1.07618-0.605-1.57605l-0.0648-0.1087c-0.2476-0.42154-0.5531-0.80577-0.9075-1.14127
	c-0.6628-0.63156-1.4785-1.0775-2.3658-1.29345h-0.0216c-0.5794-0.14584-1.1745-0.21885-1.7717-0.21739
	c-3.176,0-5.315,2.29343-5.315,4.65207c0,3.51079,4.1267,4.33685,6.5249,5.32596c0.8535,0.35865,2.3551,1.01085,2.3551,2.47825
	c0,2.7282-2.6251,3.2173-3.4894,3.2173c-0.5606,0.0051-1.1174-0.0944-1.642-0.2935c-0.2614-0.107-0.5143-0.2342-0.7562-0.3804
	c-0.3704-0.2331-0.6961-0.5313-0.9615-0.8804l-0.1512-0.2283l-0.0432-0.087c-0.0409-0.0605-0.0736-0.1263-0.0973-0.1956h-0.0108
	c-0.2405-0.5161-0.3553-1.0825-0.3348-1.6521l-2.3227,0.2065c0,0-0.054,1.2391,0.497,2.326
	c0.3024,0.7717,1.2207,2.0978,2.8627,2.8804h0.0108c0.9135,0.426,1.91,0.6413,2.9168,0.6304c2.798,0,5.8552-1.9673,5.8552-5.5433
	C35.2283,9.84762,33.1541,8.31505,30.2806,7.32594z M0,17.8474h2.33343V0.13045H0V17.8474z M53.9497,17.8474h2.3335V0.13045h-2.3335
	V17.8474z M17.5439,12.9345L8.77197,0.13045H7.00029V17.8474h2.33343V5.02164L18.0949,17.8474h1.7825V0.13045h-2.3335V12.9345z
	 M48.6455,1.59781c-0.503-0.46856-1.0894-0.83733-1.7285-1.08693c-0.6771-0.25442-1.3945-0.38331-2.1173-0.38043h-5.3259V17.8474
	h2.3227v-7.2063h3.0032c0.7228,0.0029,1.4402-0.126,2.1173-0.3804c0.6385-0.2459,1.2249-0.61102,1.7285-1.07611
	c0.4976-0.47089,0.8977-1.03605,1.1775-1.663c0.2844-0.67347,0.4279-1.39868,0.4213-2.13039
	c0.0076-0.72829-0.1359-1.45016-0.4213-2.11952C49.5435,2.64141,49.1434,2.07265,48.6455,1.59781z M47.6949,6.49987
	c-0.1422,0.34611-0.3515,0.6602-0.6158,0.92389C46.7935,7.69393,46.46,7.90778,46.096,8.05418
	c-0.4064,0.15773-0.8392,0.23523-1.2747,0.22826h-3.0248V2.47822h2.9816c0.4424-0.00501,0.8819,0.07238,1.2963,0.22826
	c0.3663,0.13686,0.7009,0.3477,0.9831,0.61955c0.2704,0.25889,0.4871,0.56923,0.6374,0.91302
	c0.1537,0.36421,0.231,0.75647,0.2268,1.15215C47.9249,5.77275,47.8476,6.15063,47.6949,6.49987z M68.4148,10.3693l0.3133-0.1086
	c0.6372-0.2485,1.2232-0.61327,1.72849-1.07611c0.5126-0.48677,0.9194-1.07519,1.1945-1.7281
	c0.2752-0.65291,0.4129-1.35614,0.4043-2.06529c0.006-0.70876-0.1328-1.4112-0.4079-2.06374
	c-0.275-0.65254-0.6804-1.24126-1.1909-1.72965c-0.503-0.46856-1.08939-0.83733-1.72849-1.08693
	c-0.6771-0.25442-1.3945-0.38331-2.1173-0.38043h-5.3367V17.8474h2.3334v-7.2063h1.0155c1.6853,0,2.3875,1.0326,2.7332,1.5543
	c0.3457,0.5217,0.767,1.2608,1.2963,2.2499l1.7933,3.3913h2.7007l-2.355-4.4456C70.3378,12.5758,69.5708,11.0215,68.4148,10.3693z
	 M66.6324,8.28244h-3.0249V2.47822h2.9708c0.446-0.00585,0.8893,0.07154,1.3072,0.22826
	c0.3663,0.13686,0.70081,0.3477,0.9831,0.61955c0.2704,0.25889,0.4871,0.56923,0.6373,0.91302
	c0.1538,0.36421,0.231,0.75647,0.22691,1.15215c0.0032,0.38155-0.0741,0.75943-0.22691,1.10867
	c-0.1461,0.34661-0.359,0.66063-0.6265,0.92389c-0.2816,0.27006-0.6115,0.48397-0.97231,0.63042
	C67.5004,8.21088,67.0678,8.28834,66.6324,8.28244z M82.383,0.03263c-5.37981,0-7.8321,4.65207-7.8321,8.96718
	c0,4.31509,2.43069,8.96719,7.8321,8.96719c5.77959,0,7.8321-4.6303,7.8321-8.96719C90.2151,4.8586,88.1734,0.03263,82.383,0.03263z
	 M82.383,15.5757c-5.1854,0-5.45551-5.4781-5.45551-6.57589c0-2.44559,1.15601-6.57593,5.45551-6.57593
	c5.0666,0,5.4555,5.03249,5.4555,6.57593C87.8385,10.978,87.3091,15.5757,82.383,15.5757z" />
</svg>
